<mxfile host="app.diagrams.net" modified="2023-06-29T21:12:56.830Z" agent="Mozilla/5.0 (Windows NT 10.0; Win64; x64; rv:109.0) Gecko/20100101 Firefox/114.0" etag="ThAcyFA_gUlIUMAh-0yl" version="21.5.2" type="github">
  <diagram id="prtHgNgQTEPvFCAcTncT" name="Page-1">
    <mxGraphModel dx="794" dy="433" grid="1" gridSize="10" guides="1" tooltips="1" connect="1" arrows="1" fold="1" page="1" pageScale="1" pageWidth="827" pageHeight="1169" math="0" shadow="0">
      <root>
        <mxCell id="0" />
        <mxCell id="1" parent="0" />
        <mxCell id="dNxyNK7c78bLwvsdeMH5-11" value="Zygote Labs Corporate Structure" style="swimlane;html=1;startSize=20;horizontal=1;containerType=tree;glass=0;" parent="1" vertex="1">
          <mxGeometry x="9" y="80" width="810" height="290" as="geometry" />
        </mxCell>
        <UserObject label="%name%&lt;br&gt;&lt;i style=&quot;color: gray&quot;&gt;%position%&lt;/i&gt;&lt;br&gt;&lt;a href=&quot;mailto:%email%&quot;&gt;Email&lt;/a&gt;" name="FIZZ" position="Solidity Dev Lead" location="U.S." email="zygotelabs@proton.me" placeholders="1" link="..." id="dNxyNK7c78bLwvsdeMH5-12">
          <mxCell style="label;image=data:image/svg+xml,PHN2ZyB2aWV3Qm94PSIwIDAgNTEyIDUxMi4wNTEiIHhtbG5zOnhsaW5rPSJodHRwOi8vd3d3LnczLm9yZy8xOTk5L3hsaW5rIiB4bWxucz0iaHR0cDovL3d3dy53My5vcmcvMjAwMC9zdmciIGRhdGEtbmFtZT0iTGF5ZXIgMiIgaWQ9ImIiPiYjeGE7ICA8ZGVmcz4mI3hhOyAgICA8bGluZWFyR3JhZGllbnQgZ3JhZGllbnRVbml0cz0idXNlclNwYWNlT25Vc2UiIHkyPSIyNTYuMDI1IiB4Mj0iNTEyIiB5MT0iMjU2LjAyNSIgeDE9IjAiIGlkPSJkIj4mI3hhOyAgICAgIDxzdG9wIHN0b3AtY29sb3I9IiNmZmY3ZDQiIG9mZnNldD0iMCIvPiYjeGE7ICAgICAgPHN0b3Agc3RvcC1jb2xvcj0iI2ZmZDk1YSIgb2Zmc2V0PSIuMzQ5Ii8+JiN4YTsgICAgICA8c3RvcCBzdG9wLWNvbG9yPSIjYzA3ZjAwIiBvZmZzZXQ9Ii43MzMiLz4mI3hhOyAgICAgIDxzdG9wIHN0b3AtY29sb3I9IiM0YzNkM2QiIG9mZnNldD0iMSIvPiYjeGE7ICAgIDwvbGluZWFyR3JhZGllbnQ+JiN4YTsgICAgPGxpbmVhckdyYWRpZW50IHhsaW5rOmhyZWY9IiNkIiB5Mj0iMjU1Ljk5MSIgeDI9IjQwNC4yNTQiIHkxPSIyNTUuOTkxIiB4MT0iMTA3Ljc0NiIgaWQ9ImUiLz4mI3hhOyAgPC9kZWZzPiYjeGE7ICA8ZyBkYXRhLW5hbWU9IkdvbGQiIGlkPSJjIj4mI3hhOyAgICA8ZWxsaXBzZSByeT0iMjE4LjI5NSIgcng9IjIxOC4yNzMiIGN5PSIyNTUuOTkxIiBjeD0iMjU2Ii8+JiN4YTsgICAgPGc+JiN4YTsgICAgICA8cGF0aCBmaWxsPSJ1cmwoI2QpIiBkPSJtMjU2LDBDMTE0LjYxNSwwLDAsMTE0LjYyNywwLDI1Ni4wMjVzMTE0LjYxNSwyNTYuMDI2LDI1NiwyNTYuMDI2LDI1Ni0xMTQuNjI3LDI1Ni0yNTYuMDI2UzM5Ny4zODUsMCwyNTYsMFptMCw0NzQuMzJjLTEyMC41NDksMC0yMTguMjczLTk3LjczNC0yMTguMjczLTIxOC4yOTUsMC00LjIzNy4xMzQtOC40NDEuMzcyLTEyLjYxOGg1My43NDZsNDEuMzQ4LDQxLjM1Mi4wMTItLjAxMiwxMy40NTYsMTMuNDU3LDM1LjIxOC0zNS4yMjFjMS43NjUuNTMzLDMuNjM1LjgyMiw1LjU3My44MjIsMTAuNjM1LDAsMTkuMjU3LTguNjIyLDE5LjI1Ny0xOS4yNTlzLTguNjIxLTE5LjI1OS0xOS4yNTctMTkuMjU5LTE5LjI1Nyw4LjYyMi0xOS4yNTcsMTkuMjU5YzAsMS41NzIuMTkzLDMuMDk3LjU0OCw0LjU2bC04LjQ2NCw4LjQ2NS01Mi41MzMtNTIuNTM4di0uMDA2aC0uMDA2bC0uMDY2LS4wNjYtLjA2Ni4wNjZoLTYzLjg3N2MyMi45NjYtOTUuOTU4LDEwOS4yODEtMTY3LjI5NywyMTIuMjY5LTE2Ny4yOTcsMTIwLjU0OSwwLDIxOC4yNzMsOTcuNzM0LDIxOC4yNzMsMjE4LjI5NSwwLDQuMjEzLS4xMzIsOC4zOTUtLjM2NywxMi41NWgtNTMuNzY0bC0zOC40NDktMzguNDUzLS4wMDYuMDA2LTEzLjUwMi0xMy41MDMtMzUuNTQsMzUuNTQ0Yy0xLjUxMi0uMzgyLTMuMDk1LS41ODYtNC43MjYtLjU4Ni0xMC42MzUsMC0xOS4yNTcsOC42MjItMTkuMjU3LDE5LjI1OXM4LjYyMiwxOS4yNTksMTkuMjU3LDE5LjI1OSwxOS4yNTctOC42MjIsMTkuMjU3LTE5LjI1OWMwLTEuODgtLjI3NC0zLjY5Ni0uNzc3LTUuNDE0bDguMTYzLTguMTYzLDQ5LjU0Myw0OS41NDguMTUtLjE1di4yOTNoNjQuMDMyYy0yMi45NDIsOTUuOTkzLTEwOS4yNzMsMTY3LjM2NS0yMTIuMjg2LDE2Ny4zNjVaIi8+JiN4YTsgICAgICA8cGF0aCBmaWxsPSJ1cmwoI2UpIiBkPSJtMzc5Ljk5NCwzMzguMTQ5Yy0xMC4wMDcsMC0xOC41OTcsNi4wNjEtMjIuMzA1LDE0LjcxMWgtMjMuNTk2di00NS45NjJoLTEwMS43MzdsMTAxLjczNy0xMDEuNzQ3di0zOC41MDRoLTExNy45ODV2LTI2LjYyOGgtNjEuNzk2Yy0zLjcwOC04LjY1MS0xMi4yOTgtMTQuNzExLTIyLjMwNS0xNC43MTEtMTMuMzk4LDAtMjQuMjYsMTAuODYzLTI0LjI2LDI0LjI2MnMxMC44NjEsMjQuMjYyLDI0LjI2LDI0LjI2MmMxMC4wMDcsMCwxOC41OTctNi4wNjEsMjIuMzA1LTE0LjcxMWgyMy41OTZ2NDYuMDNoMTAxLjczN2wtMTAxLjczNywxMDEuNzQ3djM4LjUwNGgxMTcuOTg1djI2LjU1OWg2MS43OTZjMy43MDgsOC42NTEsMTIuMjk4LDE0LjcxMSwyMi4zMDUsMTQuNzExLDEzLjM5OCwwLDI0LjI2LTEwLjg2MywyNC4yNi0yNC4yNjJzLTEwLjg2MS0yNC4yNjItMjQuMjYtMjQuMjYyWiIvPiYjeGE7ICAgIDwvZz4mI3hhOyAgPC9nPiYjeGE7PC9zdmc+;whiteSpace=wrap;html=1;rounded=0;glass=0;treeMoving=1;treeFolding=1;" parent="dNxyNK7c78bLwvsdeMH5-11" vertex="1">
            <mxGeometry x="10" y="30" width="190" height="70" as="geometry" />
          </mxCell>
        </UserObject>
        <UserObject label="%name%&lt;br&gt;&lt;i style=&quot;color: gray&quot;&gt;%position%&lt;/i&gt;&lt;br&gt;&lt;a href=&quot;mailto:%email%&quot;&gt;Email&lt;/a&gt;" name="ZION" position="Community Growth &amp; Development Lead" location="Singapore" email="zygotelabs@proton.me" placeholders="1" link="..." id="dNxyNK7c78bLwvsdeMH5-14">
          <mxCell style="label;image=data:image/svg+xml,PHN2ZyB2aWV3Qm94PSIwIDAgNTEyIDUxMi4wNTEiIHhtbG5zOnhsaW5rPSJodHRwOi8vd3d3LnczLm9yZy8xOTk5L3hsaW5rIiB4bWxucz0iaHR0cDovL3d3dy53My5vcmcvMjAwMC9zdmciIGRhdGEtbmFtZT0iTGF5ZXIgMiIgaWQ9ImIiPiYjeGE7ICA8ZGVmcz4mI3hhOyAgICA8bGluZWFyR3JhZGllbnQgZ3JhZGllbnRVbml0cz0idXNlclNwYWNlT25Vc2UiIHkyPSIyNTYuMDI1IiB4Mj0iNTEyIiB5MT0iMjU2LjAyNSIgeDE9IjAiIGlkPSJkIj4mI3hhOyAgICAgIDxzdG9wIHN0b3AtY29sb3I9IiNmZmY3ZDQiIG9mZnNldD0iMCIvPiYjeGE7ICAgICAgPHN0b3Agc3RvcC1jb2xvcj0iI2ZmZDk1YSIgb2Zmc2V0PSIuMzQ5Ii8+JiN4YTsgICAgICA8c3RvcCBzdG9wLWNvbG9yPSIjYzA3ZjAwIiBvZmZzZXQ9Ii43MzMiLz4mI3hhOyAgICAgIDxzdG9wIHN0b3AtY29sb3I9IiM0YzNkM2QiIG9mZnNldD0iMSIvPiYjeGE7ICAgIDwvbGluZWFyR3JhZGllbnQ+JiN4YTsgICAgPGxpbmVhckdyYWRpZW50IHhsaW5rOmhyZWY9IiNkIiB5Mj0iMjU1Ljk5MSIgeDI9IjQwNC4yNTQiIHkxPSIyNTUuOTkxIiB4MT0iMTA3Ljc0NiIgaWQ9ImUiLz4mI3hhOyAgPC9kZWZzPiYjeGE7ICA8ZyBkYXRhLW5hbWU9IkdvbGQiIGlkPSJjIj4mI3hhOyAgICA8ZWxsaXBzZSByeT0iMjE4LjI5NSIgcng9IjIxOC4yNzMiIGN5PSIyNTUuOTkxIiBjeD0iMjU2Ii8+JiN4YTsgICAgPGc+JiN4YTsgICAgICA8cGF0aCBmaWxsPSJ1cmwoI2QpIiBkPSJtMjU2LDBDMTE0LjYxNSwwLDAsMTE0LjYyNywwLDI1Ni4wMjVzMTE0LjYxNSwyNTYuMDI2LDI1NiwyNTYuMDI2LDI1Ni0xMTQuNjI3LDI1Ni0yNTYuMDI2UzM5Ny4zODUsMCwyNTYsMFptMCw0NzQuMzJjLTEyMC41NDksMC0yMTguMjczLTk3LjczNC0yMTguMjczLTIxOC4yOTUsMC00LjIzNy4xMzQtOC40NDEuMzcyLTEyLjYxOGg1My43NDZsNDEuMzQ4LDQxLjM1Mi4wMTItLjAxMiwxMy40NTYsMTMuNDU3LDM1LjIxOC0zNS4yMjFjMS43NjUuNTMzLDMuNjM1LjgyMiw1LjU3My44MjIsMTAuNjM1LDAsMTkuMjU3LTguNjIyLDE5LjI1Ny0xOS4yNTlzLTguNjIxLTE5LjI1OS0xOS4yNTctMTkuMjU5LTE5LjI1Nyw4LjYyMi0xOS4yNTcsMTkuMjU5YzAsMS41NzIuMTkzLDMuMDk3LjU0OCw0LjU2bC04LjQ2NCw4LjQ2NS01Mi41MzMtNTIuNTM4di0uMDA2aC0uMDA2bC0uMDY2LS4wNjYtLjA2Ni4wNjZoLTYzLjg3N2MyMi45NjYtOTUuOTU4LDEwOS4yODEtMTY3LjI5NywyMTIuMjY5LTE2Ny4yOTcsMTIwLjU0OSwwLDIxOC4yNzMsOTcuNzM0LDIxOC4yNzMsMjE4LjI5NSwwLDQuMjEzLS4xMzIsOC4zOTUtLjM2NywxMi41NWgtNTMuNzY0bC0zOC40NDktMzguNDUzLS4wMDYuMDA2LTEzLjUwMi0xMy41MDMtMzUuNTQsMzUuNTQ0Yy0xLjUxMi0uMzgyLTMuMDk1LS41ODYtNC43MjYtLjU4Ni0xMC42MzUsMC0xOS4yNTcsOC42MjItMTkuMjU3LDE5LjI1OXM4LjYyMiwxOS4yNTksMTkuMjU3LDE5LjI1OSwxOS4yNTctOC42MjIsMTkuMjU3LTE5LjI1OWMwLTEuODgtLjI3NC0zLjY5Ni0uNzc3LTUuNDE0bDguMTYzLTguMTYzLDQ5LjU0Myw0OS41NDguMTUtLjE1di4yOTNoNjQuMDMyYy0yMi45NDIsOTUuOTkzLTEwOS4yNzMsMTY3LjM2NS0yMTIuMjg2LDE2Ny4zNjVaIi8+JiN4YTsgICAgICA8cGF0aCBmaWxsPSJ1cmwoI2UpIiBkPSJtMzc5Ljk5NCwzMzguMTQ5Yy0xMC4wMDcsMC0xOC41OTcsNi4wNjEtMjIuMzA1LDE0LjcxMWgtMjMuNTk2di00NS45NjJoLTEwMS43MzdsMTAxLjczNy0xMDEuNzQ3di0zOC41MDRoLTExNy45ODV2LTI2LjYyOGgtNjEuNzk2Yy0zLjcwOC04LjY1MS0xMi4yOTgtMTQuNzExLTIyLjMwNS0xNC43MTEtMTMuMzk4LDAtMjQuMjYsMTAuODYzLTI0LjI2LDI0LjI2MnMxMC44NjEsMjQuMjYyLDI0LjI2LDI0LjI2MmMxMC4wMDcsMCwxOC41OTctNi4wNjEsMjIuMzA1LTE0LjcxMWgyMy41OTZ2NDYuMDNoMTAxLjczN2wtMTAxLjczNywxMDEuNzQ3djM4LjUwNGgxMTcuOTg1djI2LjU1OWg2MS43OTZjMy43MDgsOC42NTEsMTIuMjk4LDE0LjcxMSwyMi4zMDUsMTQuNzExLDEzLjM5OCwwLDI0LjI2LTEwLjg2MywyNC4yNi0yNC4yNjJzLTEwLjg2MS0yNC4yNjItMjQuMjYtMjQuMjYyWiIvPiYjeGE7ICAgIDwvZz4mI3hhOyAgPC9nPiYjeGE7PC9zdmc+;whiteSpace=wrap;html=1;rounded=0;glass=0;treeFolding=1;treeMoving=1;" parent="dNxyNK7c78bLwvsdeMH5-11" vertex="1">
            <mxGeometry x="411" y="30" width="191" height="70" as="geometry" />
          </mxCell>
        </UserObject>
        <UserObject label="%name%&lt;br&gt;&lt;i style=&quot;color: gray&quot;&gt;%position%&lt;/i&gt;&lt;br&gt;&lt;a href=&quot;mailto:%email%&quot;&gt;Email&lt;/a&gt;" name="CRYPATARI" position="Unity Dev Lead" location="New Zealand" email="zygotelabs@proton.me" placeholders="1" link="..." id="dNxyNK7c78bLwvsdeMH5-16">
          <mxCell style="label;image=data:image/svg+xml,PHN2ZyB2aWV3Qm94PSIwIDAgNTEyIDUxMi4wNTEiIHhtbG5zOnhsaW5rPSJodHRwOi8vd3d3LnczLm9yZy8xOTk5L3hsaW5rIiB4bWxucz0iaHR0cDovL3d3dy53My5vcmcvMjAwMC9zdmciIGRhdGEtbmFtZT0iTGF5ZXIgMiIgaWQ9ImIiPiYjeGE7ICA8ZGVmcz4mI3hhOyAgICA8bGluZWFyR3JhZGllbnQgZ3JhZGllbnRVbml0cz0idXNlclNwYWNlT25Vc2UiIHkyPSIyNTYuMDI1IiB4Mj0iNTEyIiB5MT0iMjU2LjAyNSIgeDE9IjAiIGlkPSJkIj4mI3hhOyAgICAgIDxzdG9wIHN0b3AtY29sb3I9IiNmZmY3ZDQiIG9mZnNldD0iMCIvPiYjeGE7ICAgICAgPHN0b3Agc3RvcC1jb2xvcj0iI2ZmZDk1YSIgb2Zmc2V0PSIuMzQ5Ii8+JiN4YTsgICAgICA8c3RvcCBzdG9wLWNvbG9yPSIjYzA3ZjAwIiBvZmZzZXQ9Ii43MzMiLz4mI3hhOyAgICAgIDxzdG9wIHN0b3AtY29sb3I9IiM0YzNkM2QiIG9mZnNldD0iMSIvPiYjeGE7ICAgIDwvbGluZWFyR3JhZGllbnQ+JiN4YTsgICAgPGxpbmVhckdyYWRpZW50IHhsaW5rOmhyZWY9IiNkIiB5Mj0iMjU1Ljk5MSIgeDI9IjQwNC4yNTQiIHkxPSIyNTUuOTkxIiB4MT0iMTA3Ljc0NiIgaWQ9ImUiLz4mI3hhOyAgPC9kZWZzPiYjeGE7ICA8ZyBkYXRhLW5hbWU9IkdvbGQiIGlkPSJjIj4mI3hhOyAgICA8ZWxsaXBzZSByeT0iMjE4LjI5NSIgcng9IjIxOC4yNzMiIGN5PSIyNTUuOTkxIiBjeD0iMjU2Ii8+JiN4YTsgICAgPGc+JiN4YTsgICAgICA8cGF0aCBmaWxsPSJ1cmwoI2QpIiBkPSJtMjU2LDBDMTE0LjYxNSwwLDAsMTE0LjYyNywwLDI1Ni4wMjVzMTE0LjYxNSwyNTYuMDI2LDI1NiwyNTYuMDI2LDI1Ni0xMTQuNjI3LDI1Ni0yNTYuMDI2UzM5Ny4zODUsMCwyNTYsMFptMCw0NzQuMzJjLTEyMC41NDksMC0yMTguMjczLTk3LjczNC0yMTguMjczLTIxOC4yOTUsMC00LjIzNy4xMzQtOC40NDEuMzcyLTEyLjYxOGg1My43NDZsNDEuMzQ4LDQxLjM1Mi4wMTItLjAxMiwxMy40NTYsMTMuNDU3LDM1LjIxOC0zNS4yMjFjMS43NjUuNTMzLDMuNjM1LjgyMiw1LjU3My44MjIsMTAuNjM1LDAsMTkuMjU3LTguNjIyLDE5LjI1Ny0xOS4yNTlzLTguNjIxLTE5LjI1OS0xOS4yNTctMTkuMjU5LTE5LjI1Nyw4LjYyMi0xOS4yNTcsMTkuMjU5YzAsMS41NzIuMTkzLDMuMDk3LjU0OCw0LjU2bC04LjQ2NCw4LjQ2NS01Mi41MzMtNTIuNTM4di0uMDA2aC0uMDA2bC0uMDY2LS4wNjYtLjA2Ni4wNjZoLTYzLjg3N2MyMi45NjYtOTUuOTU4LDEwOS4yODEtMTY3LjI5NywyMTIuMjY5LTE2Ny4yOTcsMTIwLjU0OSwwLDIxOC4yNzMsOTcuNzM0LDIxOC4yNzMsMjE4LjI5NSwwLDQuMjEzLS4xMzIsOC4zOTUtLjM2NywxMi41NWgtNTMuNzY0bC0zOC40NDktMzguNDUzLS4wMDYuMDA2LTEzLjUwMi0xMy41MDMtMzUuNTQsMzUuNTQ0Yy0xLjUxMi0uMzgyLTMuMDk1LS41ODYtNC43MjYtLjU4Ni0xMC42MzUsMC0xOS4yNTcsOC42MjItMTkuMjU3LDE5LjI1OXM4LjYyMiwxOS4yNTksMTkuMjU3LDE5LjI1OSwxOS4yNTctOC42MjIsMTkuMjU3LTE5LjI1OWMwLTEuODgtLjI3NC0zLjY5Ni0uNzc3LTUuNDE0bDguMTYzLTguMTYzLDQ5LjU0Myw0OS41NDguMTUtLjE1di4yOTNoNjQuMDMyYy0yMi45NDIsOTUuOTkzLTEwOS4yNzMsMTY3LjM2NS0yMTIuMjg2LDE2Ny4zNjVaIi8+JiN4YTsgICAgICA8cGF0aCBmaWxsPSJ1cmwoI2UpIiBkPSJtMzc5Ljk5NCwzMzguMTQ5Yy0xMC4wMDcsMC0xOC41OTcsNi4wNjEtMjIuMzA1LDE0LjcxMWgtMjMuNTk2di00NS45NjJoLTEwMS43MzdsMTAxLjczNy0xMDEuNzQ3di0zOC41MDRoLTExNy45ODV2LTI2LjYyOGgtNjEuNzk2Yy0zLjcwOC04LjY1MS0xMi4yOTgtMTQuNzExLTIyLjMwNS0xNC43MTEtMTMuMzk4LDAtMjQuMjYsMTAuODYzLTI0LjI2LDI0LjI2MnMxMC44NjEsMjQuMjYyLDI0LjI2LDI0LjI2MmMxMC4wMDcsMCwxOC41OTctNi4wNjEsMjIuMzA1LTE0LjcxMWgyMy41OTZ2NDYuMDNoMTAxLjczN2wtMTAxLjczNywxMDEuNzQ3djM4LjUwNGgxMTcuOTg1djI2LjU1OWg2MS43OTZjMy43MDgsOC42NTEsMTIuMjk4LDE0LjcxMSwyMi4zMDUsMTQuNzExLDEzLjM5OCwwLDI0LjI2LTEwLjg2MywyNC4yNi0yNC4yNjJzLTEwLjg2MS0yNC4yNjItMjQuMjYtMjQuMjYyWiIvPiYjeGE7ICAgIDwvZz4mI3hhOyAgPC9nPiYjeGE7PC9zdmc+;whiteSpace=wrap;html=1;rounded=0;glass=0;treeFolding=1;treeMoving=1;" parent="dNxyNK7c78bLwvsdeMH5-11" vertex="1">
            <mxGeometry x="211" y="30" width="190" height="70" as="geometry" />
          </mxCell>
        </UserObject>
        <UserObject label="%name%&lt;br&gt;&lt;i style=&quot;color: gray&quot;&gt;%position%&lt;/i&gt;&lt;br&gt;&lt;a href=&quot;mailto:%email%&quot;&gt;Email&lt;/a&gt;" name="REZAR2" position="Marketing &amp; Advertising Lead" location="IRAN" email="zygotelabs@proton.me" placeholders="1" link="..." id="dNxyNK7c78bLwvsdeMH5-18">
          <mxCell style="label;image=data:image/svg+xml,PHN2ZyB2aWV3Qm94PSIwIDAgNTEyIDUxMi4wNTEiIHhtbG5zOnhsaW5rPSJodHRwOi8vd3d3LnczLm9yZy8xOTk5L3hsaW5rIiB4bWxucz0iaHR0cDovL3d3dy53My5vcmcvMjAwMC9zdmciIGRhdGEtbmFtZT0iTGF5ZXIgMiIgaWQ9ImIiPiYjeGE7ICA8ZGVmcz4mI3hhOyAgICA8bGluZWFyR3JhZGllbnQgZ3JhZGllbnRVbml0cz0idXNlclNwYWNlT25Vc2UiIHkyPSIyNTYuMDI1IiB4Mj0iNTEyIiB5MT0iMjU2LjAyNSIgeDE9IjAiIGlkPSJkIj4mI3hhOyAgICAgIDxzdG9wIHN0b3AtY29sb3I9IiNmZmY3ZDQiIG9mZnNldD0iMCIvPiYjeGE7ICAgICAgPHN0b3Agc3RvcC1jb2xvcj0iI2ZmZDk1YSIgb2Zmc2V0PSIuMzQ5Ii8+JiN4YTsgICAgICA8c3RvcCBzdG9wLWNvbG9yPSIjYzA3ZjAwIiBvZmZzZXQ9Ii43MzMiLz4mI3hhOyAgICAgIDxzdG9wIHN0b3AtY29sb3I9IiM0YzNkM2QiIG9mZnNldD0iMSIvPiYjeGE7ICAgIDwvbGluZWFyR3JhZGllbnQ+JiN4YTsgICAgPGxpbmVhckdyYWRpZW50IHhsaW5rOmhyZWY9IiNkIiB5Mj0iMjU1Ljk5MSIgeDI9IjQwNC4yNTQiIHkxPSIyNTUuOTkxIiB4MT0iMTA3Ljc0NiIgaWQ9ImUiLz4mI3hhOyAgPC9kZWZzPiYjeGE7ICA8ZyBkYXRhLW5hbWU9IkdvbGQiIGlkPSJjIj4mI3hhOyAgICA8ZWxsaXBzZSByeT0iMjE4LjI5NSIgcng9IjIxOC4yNzMiIGN5PSIyNTUuOTkxIiBjeD0iMjU2Ii8+JiN4YTsgICAgPGc+JiN4YTsgICAgICA8cGF0aCBmaWxsPSJ1cmwoI2QpIiBkPSJtMjU2LDBDMTE0LjYxNSwwLDAsMTE0LjYyNywwLDI1Ni4wMjVzMTE0LjYxNSwyNTYuMDI2LDI1NiwyNTYuMDI2LDI1Ni0xMTQuNjI3LDI1Ni0yNTYuMDI2UzM5Ny4zODUsMCwyNTYsMFptMCw0NzQuMzJjLTEyMC41NDksMC0yMTguMjczLTk3LjczNC0yMTguMjczLTIxOC4yOTUsMC00LjIzNy4xMzQtOC40NDEuMzcyLTEyLjYxOGg1My43NDZsNDEuMzQ4LDQxLjM1Mi4wMTItLjAxMiwxMy40NTYsMTMuNDU3LDM1LjIxOC0zNS4yMjFjMS43NjUuNTMzLDMuNjM1LjgyMiw1LjU3My44MjIsMTAuNjM1LDAsMTkuMjU3LTguNjIyLDE5LjI1Ny0xOS4yNTlzLTguNjIxLTE5LjI1OS0xOS4yNTctMTkuMjU5LTE5LjI1Nyw4LjYyMi0xOS4yNTcsMTkuMjU5YzAsMS41NzIuMTkzLDMuMDk3LjU0OCw0LjU2bC04LjQ2NCw4LjQ2NS01Mi41MzMtNTIuNTM4di0uMDA2aC0uMDA2bC0uMDY2LS4wNjYtLjA2Ni4wNjZoLTYzLjg3N2MyMi45NjYtOTUuOTU4LDEwOS4yODEtMTY3LjI5NywyMTIuMjY5LTE2Ny4yOTcsMTIwLjU0OSwwLDIxOC4yNzMsOTcuNzM0LDIxOC4yNzMsMjE4LjI5NSwwLDQuMjEzLS4xMzIsOC4zOTUtLjM2NywxMi41NWgtNTMuNzY0bC0zOC40NDktMzguNDUzLS4wMDYuMDA2LTEzLjUwMi0xMy41MDMtMzUuNTQsMzUuNTQ0Yy0xLjUxMi0uMzgyLTMuMDk1LS41ODYtNC43MjYtLjU4Ni0xMC42MzUsMC0xOS4yNTcsOC42MjItMTkuMjU3LDE5LjI1OXM4LjYyMiwxOS4yNTksMTkuMjU3LDE5LjI1OSwxOS4yNTctOC42MjIsMTkuMjU3LTE5LjI1OWMwLTEuODgtLjI3NC0zLjY5Ni0uNzc3LTUuNDE0bDguMTYzLTguMTYzLDQ5LjU0Myw0OS41NDguMTUtLjE1di4yOTNoNjQuMDMyYy0yMi45NDIsOTUuOTkzLTEwOS4yNzMsMTY3LjM2NS0yMTIuMjg2LDE2Ny4zNjVaIi8+JiN4YTsgICAgICA8cGF0aCBmaWxsPSJ1cmwoI2UpIiBkPSJtMzc5Ljk5NCwzMzguMTQ5Yy0xMC4wMDcsMC0xOC41OTcsNi4wNjEtMjIuMzA1LDE0LjcxMWgtMjMuNTk2di00NS45NjJoLTEwMS43MzdsMTAxLjczNy0xMDEuNzQ3di0zOC41MDRoLTExNy45ODV2LTI2LjYyOGgtNjEuNzk2Yy0zLjcwOC04LjY1MS0xMi4yOTgtMTQuNzExLTIyLjMwNS0xNC43MTEtMTMuMzk4LDAtMjQuMjYsMTAuODYzLTI0LjI2LDI0LjI2MnMxMC44NjEsMjQuMjYyLDI0LjI2LDI0LjI2MmMxMC4wMDcsMCwxOC41OTctNi4wNjEsMjIuMzA1LTE0LjcxMWgyMy41OTZ2NDYuMDNoMTAxLjczN2wtMTAxLjczNywxMDEuNzQ3djM4LjUwNGgxMTcuOTg1djI2LjU1OWg2MS43OTZjMy43MDgsOC42NTEsMTIuMjk4LDE0LjcxMSwyMi4zMDUsMTQuNzExLDEzLjM5OCwwLDI0LjI2LTEwLjg2MywyNC4yNi0yNC4yNjJzLTEwLjg2MS0yNC4yNjItMjQuMjYtMjQuMjYyWiIvPiYjeGE7ICAgIDwvZz4mI3hhOyAgPC9nPiYjeGE7PC9zdmc+;whiteSpace=wrap;html=1;rounded=0;glass=0;" parent="dNxyNK7c78bLwvsdeMH5-11" vertex="1">
            <mxGeometry x="610" y="30" width="191" height="70" as="geometry" />
          </mxCell>
        </UserObject>
      </root>
    </mxGraphModel>
  </diagram>
</mxfile>
